<mxfile host="app.diagrams.net" agent="Mozilla/5.0 (Windows NT 10.0; Win64; x64; rv:132.0) Gecko/20100101 Firefox/132.0" modified="2024-11-30T20:21:00.976Z" version="24.5.5" etag="E9Jpvh712a3OcqUhvpUC" type="github">
  <diagram name="Page-1" id="YvR0QJeeMNLgjeDpvAry">
    <mxGraphModel dx="2895" dy="628" grid="1" gridSize="10" guides="1" tooltips="1" connect="1" arrows="1" fold="1" page="1" pageScale="1" pageWidth="850" pageHeight="1100" math="0" shadow="0">
      <root>
        <mxCell id="0" />
        <mxCell id="1" parent="0" />
        <mxCell id="O0Aovz_mTmCYk-A1HjLB-12" style="edgeStyle=orthogonalEdgeStyle;rounded=0;orthogonalLoop=1;jettySize=auto;html=1;entryX=0.5;entryY=0;entryDx=0;entryDy=0;" parent="1" source="O0Aovz_mTmCYk-A1HjLB-1" target="O0Aovz_mTmCYk-A1HjLB-7" edge="1">
          <mxGeometry relative="1" as="geometry" />
        </mxCell>
        <mxCell id="O0Aovz_mTmCYk-A1HjLB-14" style="edgeStyle=orthogonalEdgeStyle;rounded=0;orthogonalLoop=1;jettySize=auto;html=1;entryX=1;entryY=0.5;entryDx=0;entryDy=0;" parent="1" source="O0Aovz_mTmCYk-A1HjLB-1" target="O0Aovz_mTmCYk-A1HjLB-5" edge="1">
          <mxGeometry relative="1" as="geometry">
            <Array as="points">
              <mxPoint x="700" y="70" />
            </Array>
          </mxGeometry>
        </mxCell>
        <mxCell id="O0Aovz_mTmCYk-A1HjLB-1" value="Клиент" style="shape=umlActor;verticalLabelPosition=bottom;verticalAlign=top;html=1;outlineConnect=0;" parent="1" vertex="1">
          <mxGeometry x="680" y="100" width="30" height="60" as="geometry" />
        </mxCell>
        <mxCell id="O0Aovz_mTmCYk-A1HjLB-3" value="СИСТЕМА" style="ellipse;whiteSpace=wrap;html=1;" parent="1" vertex="1">
          <mxGeometry x="350" y="170" width="120" height="80" as="geometry" />
        </mxCell>
        <mxCell id="O0Aovz_mTmCYk-A1HjLB-27" style="edgeStyle=orthogonalEdgeStyle;rounded=0;orthogonalLoop=1;jettySize=auto;html=1;entryX=0.5;entryY=1;entryDx=0;entryDy=0;" parent="1" source="O0Aovz_mTmCYk-A1HjLB-4" target="O0Aovz_mTmCYk-A1HjLB-3" edge="1">
          <mxGeometry relative="1" as="geometry" />
        </mxCell>
        <mxCell id="O0Aovz_mTmCYk-A1HjLB-4" value="Записать на прием" style="ellipse;whiteSpace=wrap;html=1;" parent="1" vertex="1">
          <mxGeometry x="365" y="300" width="120" height="80" as="geometry" />
        </mxCell>
        <mxCell id="O0Aovz_mTmCYk-A1HjLB-5" value="Запись на прием" style="ellipse;whiteSpace=wrap;html=1;" parent="1" vertex="1">
          <mxGeometry x="460" y="30" width="120" height="80" as="geometry" />
        </mxCell>
        <mxCell id="O0Aovz_mTmCYk-A1HjLB-32" style="edgeStyle=orthogonalEdgeStyle;rounded=0;orthogonalLoop=1;jettySize=auto;html=1;entryX=0;entryY=1;entryDx=0;entryDy=0;" parent="1" source="O0Aovz_mTmCYk-A1HjLB-6" target="O0Aovz_mTmCYk-A1HjLB-3" edge="1">
          <mxGeometry relative="1" as="geometry" />
        </mxCell>
        <mxCell id="O0Aovz_mTmCYk-A1HjLB-6" value="Ответы на вопросы" style="ellipse;whiteSpace=wrap;html=1;" parent="1" vertex="1">
          <mxGeometry x="230" y="350" width="120" height="80" as="geometry" />
        </mxCell>
        <mxCell id="O0Aovz_mTmCYk-A1HjLB-29" style="edgeStyle=orthogonalEdgeStyle;rounded=0;orthogonalLoop=1;jettySize=auto;html=1;entryX=1;entryY=0.5;entryDx=0;entryDy=0;" parent="1" source="O0Aovz_mTmCYk-A1HjLB-7" target="O0Aovz_mTmCYk-A1HjLB-3" edge="1">
          <mxGeometry relative="1" as="geometry" />
        </mxCell>
        <mxCell id="O0Aovz_mTmCYk-A1HjLB-7" value="Общение" style="ellipse;whiteSpace=wrap;html=1;" parent="1" vertex="1">
          <mxGeometry x="540" y="230" width="120" height="80" as="geometry" />
        </mxCell>
        <mxCell id="O0Aovz_mTmCYk-A1HjLB-13" style="edgeStyle=orthogonalEdgeStyle;rounded=0;orthogonalLoop=1;jettySize=auto;html=1;entryX=1;entryY=0.5;entryDx=0;entryDy=0;" parent="1" source="O0Aovz_mTmCYk-A1HjLB-8" target="O0Aovz_mTmCYk-A1HjLB-7" edge="1">
          <mxGeometry relative="1" as="geometry">
            <Array as="points">
              <mxPoint x="735" y="270" />
            </Array>
          </mxGeometry>
        </mxCell>
        <mxCell id="O0Aovz_mTmCYk-A1HjLB-15" style="edgeStyle=orthogonalEdgeStyle;rounded=0;orthogonalLoop=1;jettySize=auto;html=1;exitX=0.25;exitY=0.1;exitDx=0;exitDy=0;exitPerimeter=0;entryX=1;entryY=0.5;entryDx=0;entryDy=0;" parent="1" source="O0Aovz_mTmCYk-A1HjLB-8" target="O0Aovz_mTmCYk-A1HjLB-4" edge="1">
          <mxGeometry relative="1" as="geometry" />
        </mxCell>
        <mxCell id="O0Aovz_mTmCYk-A1HjLB-16" style="edgeStyle=orthogonalEdgeStyle;rounded=0;orthogonalLoop=1;jettySize=auto;html=1;entryX=1;entryY=0.5;entryDx=0;entryDy=0;" parent="1" source="O0Aovz_mTmCYk-A1HjLB-8" target="O0Aovz_mTmCYk-A1HjLB-6" edge="1">
          <mxGeometry relative="1" as="geometry" />
        </mxCell>
        <mxCell id="O0Aovz_mTmCYk-A1HjLB-8" value="Бот" style="shape=umlActor;verticalLabelPosition=bottom;verticalAlign=top;html=1;outlineConnect=0;" parent="1" vertex="1">
          <mxGeometry x="720" y="390" width="30" height="60" as="geometry" />
        </mxCell>
        <mxCell id="O0Aovz_mTmCYk-A1HjLB-18" style="edgeStyle=orthogonalEdgeStyle;rounded=0;orthogonalLoop=1;jettySize=auto;html=1;entryX=0;entryY=0.5;entryDx=0;entryDy=0;" parent="1" source="O0Aovz_mTmCYk-A1HjLB-9" target="O0Aovz_mTmCYk-A1HjLB-17" edge="1">
          <mxGeometry relative="1" as="geometry">
            <Array as="points">
              <mxPoint x="135" y="225" />
              <mxPoint x="130" y="225" />
              <mxPoint x="130" y="140" />
            </Array>
          </mxGeometry>
        </mxCell>
        <mxCell id="O0Aovz_mTmCYk-A1HjLB-21" style="edgeStyle=orthogonalEdgeStyle;rounded=0;orthogonalLoop=1;jettySize=auto;html=1;exitX=0.75;exitY=0.1;exitDx=0;exitDy=0;exitPerimeter=0;entryX=0;entryY=0.5;entryDx=0;entryDy=0;" parent="1" source="O0Aovz_mTmCYk-A1HjLB-9" target="O0Aovz_mTmCYk-A1HjLB-19" edge="1">
          <mxGeometry relative="1" as="geometry" />
        </mxCell>
        <mxCell id="O0Aovz_mTmCYk-A1HjLB-23" style="edgeStyle=orthogonalEdgeStyle;rounded=0;orthogonalLoop=1;jettySize=auto;html=1;entryX=1;entryY=0.5;entryDx=0;entryDy=0;" parent="1" source="O0Aovz_mTmCYk-A1HjLB-9" target="O0Aovz_mTmCYk-A1HjLB-22" edge="1">
          <mxGeometry relative="1" as="geometry">
            <Array as="points">
              <mxPoint x="110" y="300" />
              <mxPoint x="110" y="165" />
            </Array>
          </mxGeometry>
        </mxCell>
        <mxCell id="O0Aovz_mTmCYk-A1HjLB-9" value="ИП" style="shape=umlActor;verticalLabelPosition=bottom;verticalAlign=top;html=1;outlineConnect=0;" parent="1" vertex="1">
          <mxGeometry x="120" y="270" width="30" height="60" as="geometry" />
        </mxCell>
        <mxCell id="O0Aovz_mTmCYk-A1HjLB-11" style="edgeStyle=orthogonalEdgeStyle;rounded=0;orthogonalLoop=1;jettySize=auto;html=1;dashed=1;dashPattern=8 8;" parent="1" source="O0Aovz_mTmCYk-A1HjLB-9" edge="1">
          <mxGeometry relative="1" as="geometry">
            <mxPoint x="720" y="450" as="targetPoint" />
            <Array as="points">
              <mxPoint x="135" y="450" />
            </Array>
          </mxGeometry>
        </mxCell>
        <mxCell id="O0Aovz_mTmCYk-A1HjLB-25" style="edgeStyle=orthogonalEdgeStyle;rounded=0;orthogonalLoop=1;jettySize=auto;html=1;entryX=0;entryY=0;entryDx=0;entryDy=0;" parent="1" source="O0Aovz_mTmCYk-A1HjLB-17" target="O0Aovz_mTmCYk-A1HjLB-3" edge="1">
          <mxGeometry relative="1" as="geometry" />
        </mxCell>
        <mxCell id="O0Aovz_mTmCYk-A1HjLB-17" value="Настройка расписания" style="ellipse;whiteSpace=wrap;html=1;" parent="1" vertex="1">
          <mxGeometry x="160" y="100" width="120" height="80" as="geometry" />
        </mxCell>
        <mxCell id="O0Aovz_mTmCYk-A1HjLB-26" style="edgeStyle=orthogonalEdgeStyle;rounded=0;orthogonalLoop=1;jettySize=auto;html=1;entryX=0;entryY=0.5;entryDx=0;entryDy=0;" parent="1" source="O0Aovz_mTmCYk-A1HjLB-19" target="O0Aovz_mTmCYk-A1HjLB-3" edge="1">
          <mxGeometry relative="1" as="geometry" />
        </mxCell>
        <mxCell id="O0Aovz_mTmCYk-A1HjLB-19" value="Конфигурация системы" style="ellipse;whiteSpace=wrap;html=1;" parent="1" vertex="1">
          <mxGeometry x="180" y="190" width="120" height="80" as="geometry" />
        </mxCell>
        <mxCell id="O0Aovz_mTmCYk-A1HjLB-24" style="edgeStyle=orthogonalEdgeStyle;rounded=0;orthogonalLoop=1;jettySize=auto;html=1;entryX=0.5;entryY=0;entryDx=0;entryDy=0;" parent="1" source="O0Aovz_mTmCYk-A1HjLB-22" target="O0Aovz_mTmCYk-A1HjLB-3" edge="1">
          <mxGeometry relative="1" as="geometry">
            <Array as="points">
              <mxPoint x="20" y="80" />
              <mxPoint x="410" y="80" />
            </Array>
          </mxGeometry>
        </mxCell>
        <mxCell id="O0Aovz_mTmCYk-A1HjLB-22" value="Наполение контекста для ответа на вопросы" style="ellipse;whiteSpace=wrap;html=1;" parent="1" vertex="1">
          <mxGeometry x="-50" y="120" width="140" height="90" as="geometry" />
        </mxCell>
        <mxCell id="O0Aovz_mTmCYk-A1HjLB-28" style="edgeStyle=orthogonalEdgeStyle;rounded=0;orthogonalLoop=1;jettySize=auto;html=1;entryX=0.728;entryY=0.021;entryDx=0;entryDy=0;entryPerimeter=0;" parent="1" source="O0Aovz_mTmCYk-A1HjLB-5" target="O0Aovz_mTmCYk-A1HjLB-3" edge="1">
          <mxGeometry relative="1" as="geometry" />
        </mxCell>
        <mxCell id="O0Aovz_mTmCYk-A1HjLB-34" value="2. Можно ли отправить через api сообщение от своего аккаунта" style="rounded=0;whiteSpace=wrap;html=1;" parent="1" vertex="1">
          <mxGeometry x="-120" y="520" width="210" height="60" as="geometry" />
        </mxCell>
        <mxCell id="O0Aovz_mTmCYk-A1HjLB-35" value="3. Оценить существующие системы" style="rounded=0;whiteSpace=wrap;html=1;" parent="1" vertex="1">
          <mxGeometry x="-120" y="590" width="210" height="60" as="geometry" />
        </mxCell>
        <mxCell id="O0Aovz_mTmCYk-A1HjLB-36" value="Вместо самописного использовать готовое решение для календаря" style="rounded=0;whiteSpace=wrap;html=1;" parent="1" vertex="1">
          <mxGeometry x="115" y="520" width="210" height="60" as="geometry" />
        </mxCell>
        <mxCell id="O0Aovz_mTmCYk-A1HjLB-37" value="Добавить возможность уведомлений себе от бота и на почту" style="rounded=0;whiteSpace=wrap;html=1;" parent="1" vertex="1">
          <mxGeometry x="115" y="590" width="210" height="60" as="geometry" />
        </mxCell>
        <mxCell id="Y8uz7izCV6_OdKHJKwMC-1" value="Версия 1. Mini app &lt;br&gt;Календарик" style="rounded=0;whiteSpace=wrap;html=1;fillColor=#dae8fc;strokeColor=#6c8ebf;" parent="1" vertex="1">
          <mxGeometry x="-120" y="410" width="210" height="60" as="geometry" />
        </mxCell>
        <mxCell id="Y8uz7izCV6_OdKHJKwMC-4" style="edgeStyle=orthogonalEdgeStyle;rounded=0;orthogonalLoop=1;jettySize=auto;html=1;exitX=1;exitY=0.25;exitDx=0;exitDy=0;entryX=0;entryY=0.25;entryDx=0;entryDy=0;" parent="1" source="Y8uz7izCV6_OdKHJKwMC-2" target="Y8uz7izCV6_OdKHJKwMC-3" edge="1">
          <mxGeometry relative="1" as="geometry" />
        </mxCell>
        <mxCell id="Y8uz7izCV6_OdKHJKwMC-2" value="Calendar(back)" style="rounded=0;whiteSpace=wrap;html=1;" parent="1" vertex="1">
          <mxGeometry x="310" y="760" width="140" height="40" as="geometry" />
        </mxCell>
        <mxCell id="Y8uz7izCV6_OdKHJKwMC-5" style="edgeStyle=orthogonalEdgeStyle;rounded=0;orthogonalLoop=1;jettySize=auto;html=1;exitX=0;exitY=0.75;exitDx=0;exitDy=0;entryX=1;entryY=0.75;entryDx=0;entryDy=0;" parent="1" source="Y8uz7izCV6_OdKHJKwMC-3" target="Y8uz7izCV6_OdKHJKwMC-2" edge="1">
          <mxGeometry relative="1" as="geometry" />
        </mxCell>
        <mxCell id="Y8uz7izCV6_OdKHJKwMC-7" style="edgeStyle=orthogonalEdgeStyle;rounded=0;orthogonalLoop=1;jettySize=auto;html=1;entryX=0;entryY=0.5;entryDx=0;entryDy=0;" parent="1" source="Y8uz7izCV6_OdKHJKwMC-3" target="Y8uz7izCV6_OdKHJKwMC-6" edge="1">
          <mxGeometry relative="1" as="geometry" />
        </mxCell>
        <mxCell id="Y8uz7izCV6_OdKHJKwMC-3" value="MiniApp(front)" style="rounded=0;whiteSpace=wrap;html=1;" parent="1" vertex="1">
          <mxGeometry x="530" y="760" width="140" height="40" as="geometry" />
        </mxCell>
        <mxCell id="Y8uz7izCV6_OdKHJKwMC-6" value="TG" style="rounded=0;whiteSpace=wrap;html=1;" parent="1" vertex="1">
          <mxGeometry x="690" y="760" width="140" height="40" as="geometry" />
        </mxCell>
        <mxCell id="Wm_9tF7RMvPSqtB5oGIb-2" value="&lt;span style=&quot;white-space: pre-wrap;&quot; data-src-align=&quot;0:10&quot; class=&quot;EzKURWReUAB5oZgtQNkl&quot;&gt;schedule&lt;/span&gt;" style="swimlane;fontStyle=0;childLayout=stackLayout;horizontal=1;startSize=30;horizontalStack=0;resizeParent=1;resizeParentMax=0;resizeLast=0;collapsible=1;marginBottom=0;whiteSpace=wrap;html=1;" parent="1" vertex="1">
          <mxGeometry x="-1160" y="660" width="140" height="90" as="geometry" />
        </mxCell>
        <mxCell id="Wm_9tF7RMvPSqtB5oGIb-4" value="entrepreneur_id" style="text;strokeColor=none;fillColor=none;align=left;verticalAlign=middle;spacingLeft=4;spacingRight=4;overflow=hidden;points=[[0,0.5],[1,0.5]];portConstraint=eastwest;rotatable=0;whiteSpace=wrap;html=1;" parent="Wm_9tF7RMvPSqtB5oGIb-2" vertex="1">
          <mxGeometry y="30" width="140" height="30" as="geometry" />
        </mxCell>
        <mxCell id="Wm_9tF7RMvPSqtB5oGIb-5" value="date" style="text;strokeColor=none;fillColor=none;align=left;verticalAlign=middle;spacingLeft=4;spacingRight=4;overflow=hidden;points=[[0,0.5],[1,0.5]];portConstraint=eastwest;rotatable=0;whiteSpace=wrap;html=1;" parent="Wm_9tF7RMvPSqtB5oGIb-2" vertex="1">
          <mxGeometry y="60" width="140" height="30" as="geometry" />
        </mxCell>
        <mxCell id="Wm_9tF7RMvPSqtB5oGIb-10" value="client" style="swimlane;fontStyle=0;childLayout=stackLayout;horizontal=1;startSize=30;horizontalStack=0;resizeParent=1;resizeParentMax=0;resizeLast=0;collapsible=1;marginBottom=0;whiteSpace=wrap;html=1;" parent="1" vertex="1">
          <mxGeometry x="-880" y="520" width="140" height="60" as="geometry" />
        </mxCell>
        <mxCell id="Wm_9tF7RMvPSqtB5oGIb-11" value="telegram info" style="text;strokeColor=none;fillColor=none;align=left;verticalAlign=middle;spacingLeft=4;spacingRight=4;overflow=hidden;points=[[0,0.5],[1,0.5]];portConstraint=eastwest;rotatable=0;whiteSpace=wrap;html=1;" parent="Wm_9tF7RMvPSqtB5oGIb-10" vertex="1">
          <mxGeometry y="30" width="140" height="30" as="geometry" />
        </mxCell>
        <mxCell id="Wm_9tF7RMvPSqtB5oGIb-23" style="edgeStyle=orthogonalEdgeStyle;rounded=0;orthogonalLoop=1;jettySize=auto;html=1;entryX=0;entryY=0.5;entryDx=0;entryDy=0;exitX=0;exitY=0.18;exitDx=0;exitDy=0;exitPerimeter=0;" parent="1" source="Wm_9tF7RMvPSqtB5oGIb-13" target="Wm_9tF7RMvPSqtB5oGIb-4" edge="1">
          <mxGeometry relative="1" as="geometry" />
        </mxCell>
        <mxCell id="Wm_9tF7RMvPSqtB5oGIb-13" value="entrepreneur" style="swimlane;fontStyle=0;childLayout=stackLayout;horizontal=1;startSize=30;horizontalStack=0;resizeParent=1;resizeParentMax=0;resizeLast=0;collapsible=1;marginBottom=0;whiteSpace=wrap;html=1;" parent="1" vertex="1">
          <mxGeometry x="-1415" y="560" width="140" height="90" as="geometry" />
        </mxCell>
        <mxCell id="Wm_9tF7RMvPSqtB5oGIb-14" value="name" style="text;strokeColor=none;fillColor=none;align=left;verticalAlign=middle;spacingLeft=4;spacingRight=4;overflow=hidden;points=[[0,0.5],[1,0.5]];portConstraint=eastwest;rotatable=0;whiteSpace=wrap;html=1;" parent="Wm_9tF7RMvPSqtB5oGIb-13" vertex="1">
          <mxGeometry y="30" width="140" height="30" as="geometry" />
        </mxCell>
        <mxCell id="k59eH6Vw85935yDZkmzZ-1" value="telegram info" style="text;strokeColor=none;fillColor=none;align=left;verticalAlign=middle;spacingLeft=4;spacingRight=4;overflow=hidden;points=[[0,0.5],[1,0.5]];portConstraint=eastwest;rotatable=0;whiteSpace=wrap;html=1;" vertex="1" parent="Wm_9tF7RMvPSqtB5oGIb-13">
          <mxGeometry y="60" width="140" height="30" as="geometry" />
        </mxCell>
        <mxCell id="Wm_9tF7RMvPSqtB5oGIb-16" value="appointment" style="swimlane;fontStyle=0;childLayout=stackLayout;horizontal=1;startSize=30;horizontalStack=0;resizeParent=1;resizeParentMax=0;resizeLast=0;collapsible=1;marginBottom=0;whiteSpace=wrap;html=1;" parent="1" vertex="1">
          <mxGeometry x="-1070" y="380" width="140" height="180" as="geometry" />
        </mxCell>
        <mxCell id="Wm_9tF7RMvPSqtB5oGIb-17" value="start_time" style="text;strokeColor=none;fillColor=none;align=left;verticalAlign=middle;spacingLeft=4;spacingRight=4;overflow=hidden;points=[[0,0.5],[1,0.5]];portConstraint=eastwest;rotatable=0;whiteSpace=wrap;html=1;" parent="Wm_9tF7RMvPSqtB5oGIb-16" vertex="1">
          <mxGeometry y="30" width="140" height="30" as="geometry" />
        </mxCell>
        <mxCell id="Wm_9tF7RMvPSqtB5oGIb-18" value="end_time" style="text;strokeColor=none;fillColor=none;align=left;verticalAlign=middle;spacingLeft=4;spacingRight=4;overflow=hidden;points=[[0,0.5],[1,0.5]];portConstraint=eastwest;rotatable=0;whiteSpace=wrap;html=1;" parent="Wm_9tF7RMvPSqtB5oGIb-16" vertex="1">
          <mxGeometry y="60" width="140" height="30" as="geometry" />
        </mxCell>
        <mxCell id="Wm_9tF7RMvPSqtB5oGIb-21" value="client_id" style="text;strokeColor=none;fillColor=none;align=left;verticalAlign=middle;spacingLeft=4;spacingRight=4;overflow=hidden;points=[[0,0.5],[1,0.5]];portConstraint=eastwest;rotatable=0;whiteSpace=wrap;html=1;" parent="Wm_9tF7RMvPSqtB5oGIb-16" vertex="1">
          <mxGeometry y="90" width="140" height="30" as="geometry" />
        </mxCell>
        <mxCell id="Wm_9tF7RMvPSqtB5oGIb-26" value="appointment_type_id" style="text;strokeColor=none;fillColor=none;align=left;verticalAlign=middle;spacingLeft=4;spacingRight=4;overflow=hidden;points=[[0,0.5],[1,0.5]];portConstraint=eastwest;rotatable=0;whiteSpace=wrap;html=1;" parent="Wm_9tF7RMvPSqtB5oGIb-16" vertex="1">
          <mxGeometry y="120" width="140" height="30" as="geometry" />
        </mxCell>
        <mxCell id="Wm_9tF7RMvPSqtB5oGIb-20" value="&lt;span style=&quot;white-space: pre-wrap;&quot; data-src-align=&quot;0:10&quot; class=&quot;EzKURWReUAB5oZgtQNkl&quot;&gt;schedule_id&lt;/span&gt;" style="text;strokeColor=none;fillColor=none;align=left;verticalAlign=middle;spacingLeft=4;spacingRight=4;overflow=hidden;points=[[0,0.5],[1,0.5]];portConstraint=eastwest;rotatable=0;whiteSpace=wrap;html=1;" parent="Wm_9tF7RMvPSqtB5oGIb-16" vertex="1">
          <mxGeometry y="150" width="140" height="30" as="geometry" />
        </mxCell>
        <mxCell id="Wm_9tF7RMvPSqtB5oGIb-24" style="edgeStyle=orthogonalEdgeStyle;rounded=0;orthogonalLoop=1;jettySize=auto;html=1;entryX=0.5;entryY=0;entryDx=0;entryDy=0;" parent="1" source="Wm_9tF7RMvPSqtB5oGIb-20" target="Wm_9tF7RMvPSqtB5oGIb-2" edge="1">
          <mxGeometry relative="1" as="geometry" />
        </mxCell>
        <mxCell id="Wm_9tF7RMvPSqtB5oGIb-25" style="edgeStyle=orthogonalEdgeStyle;rounded=0;orthogonalLoop=1;jettySize=auto;html=1;entryX=0;entryY=0.25;entryDx=0;entryDy=0;" parent="1" source="Wm_9tF7RMvPSqtB5oGIb-21" target="Wm_9tF7RMvPSqtB5oGIb-10" edge="1">
          <mxGeometry relative="1" as="geometry" />
        </mxCell>
        <mxCell id="Wm_9tF7RMvPSqtB5oGIb-27" value="service_dictionary_item" style="swimlane;fontStyle=0;childLayout=stackLayout;horizontal=1;startSize=30;horizontalStack=0;resizeParent=1;resizeParentMax=0;resizeLast=0;collapsible=1;marginBottom=0;whiteSpace=wrap;html=1;" parent="1" vertex="1">
          <mxGeometry x="-1275" y="370" width="140" height="120" as="geometry" />
        </mxCell>
        <mxCell id="Wm_9tF7RMvPSqtB5oGIb-28" value="value" style="text;strokeColor=none;fillColor=none;align=left;verticalAlign=middle;spacingLeft=4;spacingRight=4;overflow=hidden;points=[[0,0.5],[1,0.5]];portConstraint=eastwest;rotatable=0;whiteSpace=wrap;html=1;" parent="Wm_9tF7RMvPSqtB5oGIb-27" vertex="1">
          <mxGeometry y="30" width="140" height="30" as="geometry" />
        </mxCell>
        <mxCell id="Wm_9tF7RMvPSqtB5oGIb-38" value="dictionary_id" style="text;strokeColor=none;fillColor=none;align=left;verticalAlign=middle;spacingLeft=4;spacingRight=4;overflow=hidden;points=[[0,0.5],[1,0.5]];portConstraint=eastwest;rotatable=0;whiteSpace=wrap;html=1;" parent="Wm_9tF7RMvPSqtB5oGIb-27" vertex="1">
          <mxGeometry y="60" width="140" height="30" as="geometry" />
        </mxCell>
        <mxCell id="Wm_9tF7RMvPSqtB5oGIb-41" value="description" style="text;strokeColor=none;fillColor=none;align=left;verticalAlign=middle;spacingLeft=4;spacingRight=4;overflow=hidden;points=[[0,0.5],[1,0.5]];portConstraint=eastwest;rotatable=0;whiteSpace=wrap;html=1;" parent="Wm_9tF7RMvPSqtB5oGIb-27" vertex="1">
          <mxGeometry y="90" width="140" height="30" as="geometry" />
        </mxCell>
        <mxCell id="Wm_9tF7RMvPSqtB5oGIb-33" style="edgeStyle=orthogonalEdgeStyle;rounded=0;orthogonalLoop=1;jettySize=auto;html=1;entryX=1;entryY=0.25;entryDx=0;entryDy=0;" parent="1" source="Wm_9tF7RMvPSqtB5oGIb-26" target="Wm_9tF7RMvPSqtB5oGIb-27" edge="1">
          <mxGeometry relative="1" as="geometry" />
        </mxCell>
        <mxCell id="Wm_9tF7RMvPSqtB5oGIb-34" value="service_dictionary" style="swimlane;fontStyle=0;childLayout=stackLayout;horizontal=1;startSize=30;horizontalStack=0;resizeParent=1;resizeParentMax=0;resizeLast=0;collapsible=1;marginBottom=0;whiteSpace=wrap;html=1;" parent="1" vertex="1">
          <mxGeometry x="-1460" y="380" width="140" height="90" as="geometry" />
        </mxCell>
        <mxCell id="Wm_9tF7RMvPSqtB5oGIb-35" value="name" style="text;strokeColor=none;fillColor=none;align=left;verticalAlign=middle;spacingLeft=4;spacingRight=4;overflow=hidden;points=[[0,0.5],[1,0.5]];portConstraint=eastwest;rotatable=0;whiteSpace=wrap;html=1;" parent="Wm_9tF7RMvPSqtB5oGIb-34" vertex="1">
          <mxGeometry y="30" width="140" height="30" as="geometry" />
        </mxCell>
        <mxCell id="Wm_9tF7RMvPSqtB5oGIb-36" value="entrepreneur_id" style="text;strokeColor=none;fillColor=none;align=left;verticalAlign=middle;spacingLeft=4;spacingRight=4;overflow=hidden;points=[[0,0.5],[1,0.5]];portConstraint=eastwest;rotatable=0;whiteSpace=wrap;html=1;" parent="Wm_9tF7RMvPSqtB5oGIb-34" vertex="1">
          <mxGeometry y="60" width="140" height="30" as="geometry" />
        </mxCell>
        <mxCell id="Wm_9tF7RMvPSqtB5oGIb-37" style="edgeStyle=orthogonalEdgeStyle;rounded=0;orthogonalLoop=1;jettySize=auto;html=1;entryX=0.5;entryY=0;entryDx=0;entryDy=0;" parent="1" source="Wm_9tF7RMvPSqtB5oGIb-36" target="Wm_9tF7RMvPSqtB5oGIb-13" edge="1">
          <mxGeometry relative="1" as="geometry" />
        </mxCell>
        <mxCell id="Wm_9tF7RMvPSqtB5oGIb-40" style="edgeStyle=orthogonalEdgeStyle;rounded=0;orthogonalLoop=1;jettySize=auto;html=1;entryX=1;entryY=0.189;entryDx=0;entryDy=0;entryPerimeter=0;" parent="1" source="Wm_9tF7RMvPSqtB5oGIb-38" target="Wm_9tF7RMvPSqtB5oGIb-34" edge="1">
          <mxGeometry relative="1" as="geometry" />
        </mxCell>
      </root>
    </mxGraphModel>
  </diagram>
</mxfile>
